<svg id="Layer_1" xmlns="http://www.w3.org/2000/svg" viewBox="0 0 512 512"><style>.st0{fill:#666}</style><path class="st0" d="M257.1 5C118.5 5 6.1 117.4 6.1 256s112.4 251 251 251 251-112.4 251-251S395.7 5 257.1 5zm0 20.9C384 25.9 487.2 129.1 487.2 256c0 55.8-20 107-53.2 146.9-22.9-9.6-77.1-28.4-110.6-38.3-2.9-.9-3.3-1-3.3-12.9 0-9.8 4-19.7 8-28.1 4.3-9.1 9.3-24.4 11.2-38.1 5.1-5.9 12-17.5 16.5-39.7 3.9-19.6 2.1-26.7-.5-33.4-.3-.7-.6-1.4-.8-2.1-1-4.6.4-28.4 3.7-46.9 2.3-12.7-.6-39.7-18.1-62-11-14.1-32.1-31.4-70.7-33.8h-21.1c-37.9 2.4-59 19.7-70 33.8-17.5 22.3-20.4 49.3-18.1 62 3.4 18.5 4.7 42.3 3.7 46.8-.2.8-.5 1.5-.8 2.2-2.6 6.7-4.4 13.8-.5 33.4 4.4 22.2 11.4 33.8 16.5 39.7 1.8 13.7 6.9 29 11.2 38.1 3.1 6.7 4.6 15.7 4.6 28.5 0 11.9-.4 12-3.1 12.9-34.7 10.2-89.8 30.2-110.4 39.2C47.5 364.1 27 312.4 27 256 27 129.1 130.2 25.9 257.1 25.9zM96.5 420.5c23.6-9.6 70.5-26.4 101.4-35.5 17.9-5.7 17.9-20.8 17.9-32.9 0-10.1-.7-24.9-6.6-37.4-4-8.6-8.7-23.3-9.7-34.8-.2-2.7-1.5-5.2-3.5-7-3-2.6-9-12.1-12.8-31.3-3-15.2-1.8-18.5-.5-21.7.5-1.4 1-2.7 1.5-4.2 2.5-9.2-.3-39.3-3.3-56.1-1.3-7.3.3-27.9 14-45.3 12.2-15.6 30.7-24.3 54.2-25.8h19.8c24.2 1.5 42.6 10.2 54.9 25.8 13.6 17.4 15.3 38.1 13.9 45.3-3 16.7-5.8 46.9-3.3 56.1.4 1.5.9 2.9 1.5 4.2 1.2 3.2 2.5 6.5-.5 21.7-3.8 19.2-9.9 28.7-12.8 31.3-2 1.8-3.3 4.3-3.5 7-1 11.5-5.6 26.3-9.7 34.8-4.6 9.9-10 23-10 37 0 12.1 0 27.2 18.1 32.9 29.5 8.7 76.7 24.9 101.6 34.7-41.6 41.2-98.8 66.7-161.8 66.7-62.6.1-119.3-25-160.8-65.5z"/></svg>