<svg id="레이어_1" xmlns="http://www.w3.org/2000/svg" xmlns:xlink="http://www.w3.org/1999/xlink" viewBox="0 0 20 20"><style>.st0{clip-path:url(#SVGID_2_);fill:#ffbc00}</style><defs><path id="SVGID_1_" d="M.1.3h19.8v19.4H.1z"/></defs><clipPath id="SVGID_2_"><use xlink:href="#SVGID_1_" overflow="visible"/></clipPath><path class="st0" d="M4.1 19.2c-.1 0-.1 0-.2-.1s-.2-.2-.1-.3l1.1-6.4L.2 7.9c-.1-.1-.1-.2-.1-.3 0-.1.2-.2.3-.2l6.4-.9L9.7.7c0-.2.1-.3.3-.3.1 0 .3.1.3.2l2.9 5.8 6.4.9c.1 0 .2.1.3.2 0 .1 0 .3-.1.4l-4.6 4.5 1.1 6.4c0 .1 0 .3-.1.3-.1.1-.3.1-.4 0l-5.7-3-5.7 3c-.2.1-.2.1-.3.1zm5.9-8.4c.1 0 0-.2 0 0 .1-.1-.1-.1 0 0 0-.2-.1 0 0 0-.1-.1 0 .1 0 0-.1.1.1-.1 0 0zM1.2 7.9"/></svg>