<?xml version="1.0" encoding="utf-8"?>
<!-- Generator: Adobe Illustrator 18.1.1, SVG Export Plug-In . SVG Version: 6.00 Build 0)  -->
<svg version="1.1" id="Layer_1" xmlns="http://www.w3.org/2000/svg" xmlns:xlink="http://www.w3.org/1999/xlink" x="0px" y="0px"
	 viewBox="0 0 36 36" enable-background="new 0 0 36 36" xml:space="preserve">
<line fill="none" stroke="#666666" stroke-width="2" stroke-miterlimit="10" x1="12" y1="30" x2="24" y2="30"/>
<g>
	<path fill="#666666" d="M18,2l10,0c0,2.1,0,4.1-0.1,4.6C27.8,7,26.9,8.8,25,10.4l-3.2,2.7l0.1,0c-2.2,2-2.3,2.4-2.5,2.8
		c-0.1,0.4-0.8,2.7,0.1,4.5c0.4,0.8,1.6,2,5.1,5.1c0.4,0.3,0.8,0.7,0.9,0.8l0.1,0.1c1.1,1.2,1.8,2.4,2,3.1c0.2,0.7,0.3,2.7,0.3,4.5
		l-10.3,0L8,34c0-1.6,0.1-3.6,0.3-4.6c0.1-0.5,0.7-1.6,1.9-3l0.1-0.1c0.2-0.2,0.6-0.5,0.9-0.8c3.6-3.1,4.7-4.3,5.1-5.1
		c0.9-1.9,0.2-4.1,0.1-4.5c-0.1-0.4-0.3-0.8-2.5-2.8l0.2,0L11,10.4C9.1,8.8,8.3,7.1,8.2,6.7C8.1,5.9,8,3.8,8,2H18 M18,0H6
		C6,0,6,5.3,6.2,7c0.1,1,1.3,3.1,3.5,4.9l0,0c0,0,4.7,4.1,4.9,4.6c0.2,0.5,0.5,2,0,3c-0.5,1-5.9,5.5-5.8,5.5c-1.4,1.5-2.3,3-2.5,4
		C6,31.1,6,36,6,36l11.7,0L30,36c0,0,0.1-5.2-0.3-7c-0.3-1-1.1-2.6-2.5-4c0.1,0-5.3-4.5-5.8-5.5c-0.5-1-0.2-2.5,0-3
		c0.2-0.5,4.9-4.6,4.9-4.6l0,0c2.2-1.8,3.3-4,3.5-4.9C30,5.9,30,0,30,0L18,0L18,0z"/>
</g>
</svg>
