<?xml version="1.0" encoding="utf-8"?>
<!-- Generator: Adobe Illustrator 21.0.0, SVG Export Plug-In . SVG Version: 6.00 Build 0)  -->
<svg version="1.1" id="레이어_1" xmlns="http://www.w3.org/2000/svg" xmlns:xlink="http://www.w3.org/1999/xlink" x="0px"
	 y="0px" viewBox="0 0 20 20" style="enable-background:new 0 0 20 20;" xml:space="preserve">
<style type="text/css">
	.st0{clip-path:url(#SVGID_2_);fill:#666666;}
</style>
<g>
	<g>
		<defs>
			<rect id="SVGID_1_" x="0.1" y="0.3" width="19.8" height="19.4"/>
		</defs>
		<clipPath id="SVGID_2_">
			<use xlink:href="#SVGID_1_"  style="overflow:visible;"/>
		</clipPath>
		<path class="st0" d="M4.1,19.2c-0.1,0-0.1,0-0.2-0.1c-0.1-0.1-0.2-0.2-0.1-0.3l1.1-6.4L0.2,7.9C0.1,7.8,0.1,7.7,0.1,7.6
			c0-0.1,0.2-0.2,0.3-0.2l6.4-0.9l2.9-5.8C9.7,0.5,9.8,0.4,10,0.4c0.1,0,0.3,0.1,0.3,0.2l2.9,5.8l6.4,0.9c0.1,0,0.2,0.1,0.3,0.2
			c0,0.1,0,0.3-0.1,0.4l-4.6,4.5l1.1,6.4c0,0.1,0,0.3-0.1,0.3c-0.1,0.1-0.3,0.1-0.4,0l-5.7-3l-5.7,3C4.2,19.2,4.2,19.2,4.1,19.2
			L4.1,19.2z M1.2,7.9L5.5,12c0.1,0.1,0.1,0.2,0.1,0.3l-1,5.8l5.2-2.8c0.1-0.1,0.2-0.1,0.3,0l5.2,2.8l-1-5.8c0-0.1,0-0.2,0.1-0.3
			l4.2-4.1l-5.9-0.9c-0.1,0-0.2-0.1-0.3-0.2L10,1.6L7.4,6.9C7.3,7,7.2,7,7.1,7.1L1.2,7.9z M1.2,7.9"/>
	</g>
</g>
</svg>
